<svg fill="#000000" version="1.1" id="Capa_1" xmlns="http://www.w3.org/2000/svg" xmlns:xlink="http://www.w3.org/1999/xlink" 
	 width="800px" height="800px" viewBox="0 0 32.118 32.118"
	 xml:space="preserve">
<g>
	<g>
		<path d="M16.1,6.888C12.546,5.7,8.431,6.485,8.431,6.485L7.45,9.418c0,0,3.375,0.101,7.285,1.701
			c3.911,1.599,6.792,3.229,6.792,3.229l1.065-3.185C22.592,11.164,19.65,8.077,16.1,6.888z"/>
		<path d="M28.515,11.33l-1.146-1.249l0.125-0.369c0,0,1.067-1.875-1.535-1.579c-0.135,0.024-0.217,0.067-0.265,0.121L18.137,0
			L3.604,2.897l3.907,3.634l0.227-0.678c0,0,4.59-0.877,8.551,0.448c3.961,1.326,7.241,4.769,7.241,4.769l-0.396,1.186l3-0.516
			c-0.53,1.583-1.141,3.407-1.329,3.971l-0.847-0.283l-0.656,1.965l1.386-0.401l0.987,1.194l0.658-1.963l-0.914-0.306l1.438-4.301
			L28.515,11.33z M26.994,9.166c-0.017,0.047-0.061,0.179-0.125,0.37l-0.604-0.66C26.597,8.786,27.15,8.696,26.994,9.166z
			 M26.811,10.855c-0.109,0.329-0.465,0.505-0.793,0.395c-0.328-0.109-0.506-0.464-0.396-0.793c0.11-0.328,0.465-0.505,0.793-0.395
			C26.744,10.171,26.92,10.527,26.811,10.855z"/>
		<path d="M14.744,11.502l-7.172,0.727l-0.273-0.188l6.892-0.747c-0.098-0.037-0.203-0.075-0.306-0.114l-6.769,0.735L6.888,11.76
			l6.604-0.722c-0.101-0.036-0.202-0.073-0.308-0.112l-6.479,0.708l-0.25-0.173l6.272-0.694c-0.107-0.037-0.218-0.075-0.324-0.11
			l-6.132,0.679l-0.279-0.192l5.861-0.652c-0.127-0.036-0.251-0.071-0.376-0.104l-5.668,0.63l-0.303-0.209l0.434-0.045l4.912-0.533
			c-1.249-0.292-2.32-0.415-3.104-0.463L4.144,10.15v0.218v0.583v19.223l2.734,1.93v0.015l14.287-1.449l0.004-16.24
			c-0.651-0.315-1.209-0.586-1.696-0.821C17.377,12.588,16.543,12.185,14.744,11.502z M18.836,19.609l-8.515,0.926v-4.796
			l8.515-0.925V19.609z"/>
	</g>
</g>
</svg>